<svg width="76" height="75" viewBox="0 0 76 75" fill="none" xmlns="http://www.w3.org/2000/svg">
<rect x="2" y="2" width="72" height="71" rx="10" fill="white" stroke="black" stroke-width="4"/>
<path d="M24.304 61V17.3636H40.6676C44.0199 17.3636 46.8324 17.9886 49.1051 19.2386C51.392 20.4886 53.1179 22.2074 54.2827 24.3949C55.4616 26.5682 56.0511 29.0398 56.0511 31.8097C56.0511 34.608 55.4616 37.0937 54.2827 39.267C53.1037 41.4403 51.3636 43.152 49.0625 44.402C46.7614 45.6378 43.9276 46.2557 40.5611 46.2557H29.7159V39.7571H39.4957C41.456 39.7571 43.0611 39.4162 44.3111 38.7344C45.5611 38.0526 46.4844 37.1151 47.081 35.9219C47.6918 34.7287 47.9972 33.358 47.9972 31.8097C47.9972 30.2614 47.6918 28.8977 47.081 27.7188C46.4844 26.5398 45.554 25.6236 44.2898 24.9702C43.0398 24.3026 41.4276 23.9688 39.4531 23.9688H32.2088V61H24.304Z" fill="#F51250"/>
</svg>
