<svg width="297" height="41" viewBox="0 0 297 41" fill="none" xmlns="http://www.w3.org/2000/svg">
<path d="M0.394531 40V0H14.6523C17.7643 0 20.3424 0.566406 22.3867 1.69922C24.431 2.83203 25.9609 4.38151 26.9766 6.34766C27.9922 8.30078 28.5 10.5013 28.5 12.9492C28.5 15.4102 27.9857 17.6237 26.957 19.5898C25.9414 21.543 24.4049 23.0924 22.3477 24.2383C20.3034 25.3711 17.7318 25.9375 14.6328 25.9375H4.82813V20.8203H14.0859C16.0521 20.8203 17.6471 20.4818 18.8711 19.8047C20.0951 19.1146 20.9935 18.1771 21.5664 16.9922C22.1393 15.8073 22.4258 14.4596 22.4258 12.9492C22.4258 11.4388 22.1393 10.0977 21.5664 8.92578C20.9935 7.75391 20.0885 6.83594 18.8516 6.17188C17.6276 5.50781 16.013 5.17578 14.0078 5.17578H6.42969V40H0.394531Z" fill="black"/>
<path d="M43.5684 40.6641C41.6673 40.6641 39.9486 40.3125 38.4121 39.6094C36.8757 38.8932 35.6582 37.8581 34.7598 36.5039C33.8743 35.1497 33.4316 33.4896 33.4316 31.5234C33.4316 29.8307 33.7572 28.4375 34.4082 27.3438C35.0592 26.25 35.9382 25.3841 37.0449 24.7461C38.1517 24.1081 39.3887 23.6263 40.7559 23.3008C42.123 22.9753 43.5163 22.7279 44.9355 22.5586C46.7324 22.3503 48.1908 22.181 49.3105 22.0508C50.4303 21.9076 51.2441 21.6797 51.752 21.3672C52.2598 21.0547 52.5137 20.5469 52.5137 19.8438V19.707C52.5137 18.0013 52.0319 16.6797 51.0684 15.7422C50.1178 14.8047 48.6986 14.3359 46.8105 14.3359C44.8444 14.3359 43.2949 14.7721 42.1621 15.6445C41.0423 16.5039 40.2676 17.4609 39.8379 18.5156L34.3496 17.2656C35.0007 15.4427 35.9512 13.9714 37.2012 12.8516C38.4642 11.7188 39.916 10.8984 41.5566 10.3906C43.1973 9.86979 44.9225 9.60938 46.7324 9.60938C47.9303 9.60938 49.1999 9.75261 50.541 10.0391C51.8952 10.3125 53.1582 10.8203 54.3301 11.5625C55.515 12.3047 56.485 13.3659 57.2402 14.7461C57.9954 16.1133 58.373 17.8906 58.373 20.0781V40H52.6699V35.8984H52.4355C52.0579 36.6536 51.4915 37.3958 50.7363 38.125C49.9811 38.8542 49.0111 39.4596 47.8262 39.9414C46.6413 40.4232 45.222 40.6641 43.5684 40.6641ZM44.8379 35.9766C46.4525 35.9766 47.8327 35.6576 48.9785 35.0195C50.1374 34.3815 51.0163 33.5482 51.6152 32.5195C52.2272 31.4779 52.5332 30.3646 52.5332 29.1797V25.3125C52.3249 25.5208 51.9212 25.7161 51.3223 25.8984C50.7363 26.0677 50.0658 26.2174 49.3105 26.3477C48.5553 26.4648 47.8197 26.5755 47.1035 26.6797C46.3874 26.7708 45.7884 26.849 45.3066 26.9141C44.1738 27.0573 43.1387 27.2982 42.2012 27.6367C41.2767 27.9753 40.5345 28.4635 39.9746 29.1016C39.4277 29.7266 39.1543 30.5599 39.1543 31.6016C39.1543 33.0469 39.6882 34.1406 40.7559 34.8828C41.8236 35.612 43.1842 35.9766 44.8379 35.9766Z" fill="black"/>
<path d="M71.9912 22.1875V40H66.1514V10H71.7568V14.8828H72.1279C72.818 13.2943 73.8988 12.0182 75.3701 11.0547C76.8545 10.0911 78.723 9.60938 80.9756 9.60938C83.0199 9.60938 84.8102 10.0391 86.3467 10.8984C87.8831 11.7448 89.0745 13.0078 89.9209 14.6875C90.7673 16.3672 91.1904 18.444 91.1904 20.918V40H85.3506V21.6211C85.3506 19.4466 84.7842 17.7474 83.6514 16.5234C82.5186 15.2865 80.9626 14.668 78.9834 14.668C77.6292 14.668 76.4248 14.9609 75.3701 15.5469C74.3285 16.1328 73.5016 16.9922 72.8896 18.125C72.2907 19.2448 71.9912 20.599 71.9912 22.1875Z" fill="black"/>
<path d="M110.253 40.5859C107.831 40.5859 105.67 39.9674 103.769 38.7305C101.881 37.4805 100.396 35.7031 99.3154 33.3984C98.2477 31.0807 97.7139 28.3008 97.7139 25.0586C97.7139 21.8164 98.2542 19.043 99.335 16.7383C100.429 14.4336 101.926 12.6693 103.827 11.4453C105.728 10.2214 107.883 9.60938 110.292 9.60938C112.154 9.60938 113.651 9.92188 114.784 10.5469C115.93 11.1589 116.815 11.875 117.44 12.6953C118.078 13.5156 118.573 14.2383 118.925 14.8633H119.276V0H125.116V40H119.413V35.332H118.925C118.573 35.9701 118.065 36.6992 117.401 37.5195C116.75 38.3398 115.852 39.056 114.706 39.668C113.56 40.2799 112.076 40.5859 110.253 40.5859ZM111.542 35.6055C113.222 35.6055 114.641 35.1628 115.8 34.2773C116.972 33.3789 117.857 32.1354 118.456 30.5469C119.068 28.9583 119.374 27.1094 119.374 25C119.374 22.9167 119.075 21.0937 118.476 19.5312C117.877 17.9687 116.998 16.7513 115.839 15.8789C114.68 15.0065 113.248 14.5703 111.542 14.5703C109.784 14.5703 108.319 15.026 107.147 15.9375C105.976 16.849 105.09 18.0924 104.491 19.668C103.905 21.2435 103.612 23.0208 103.612 25C103.612 27.0052 103.912 28.8086 104.511 30.4102C105.11 32.0117 105.995 33.2812 107.167 34.2188C108.352 35.1432 109.81 35.6055 111.542 35.6055Z" fill="black"/>
<path d="M142.182 40.6641C140.281 40.6641 138.562 40.3125 137.025 39.6094C135.489 38.8932 134.271 37.8581 133.373 36.5039C132.488 35.1497 132.045 33.4896 132.045 31.5234C132.045 29.8307 132.37 28.4375 133.021 27.3438C133.673 26.25 134.551 25.3841 135.658 24.7461C136.765 24.1081 138.002 23.6263 139.369 23.3008C140.736 22.9753 142.13 22.7279 143.549 22.5586C145.346 22.3503 146.804 22.181 147.924 22.0508C149.044 21.9076 149.857 21.6797 150.365 21.3672C150.873 21.0547 151.127 20.5469 151.127 19.8438V19.707C151.127 18.0013 150.645 16.6797 149.682 15.7422C148.731 14.8047 147.312 14.3359 145.424 14.3359C143.458 14.3359 141.908 14.7721 140.775 15.6445C139.656 16.5039 138.881 17.4609 138.451 18.5156L132.963 17.2656C133.614 15.4427 134.564 13.9714 135.814 12.8516C137.077 11.7188 138.529 10.8984 140.17 10.3906C141.811 9.86979 143.536 9.60938 145.346 9.60938C146.544 9.60938 147.813 9.75261 149.154 10.0391C150.508 10.3125 151.771 10.8203 152.943 11.5625C154.128 12.3047 155.098 13.3659 155.854 14.7461C156.609 16.1133 156.986 17.8906 156.986 20.0781V40H151.283V35.8984H151.049C150.671 36.6536 150.105 37.3958 149.35 38.125C148.594 38.8542 147.624 39.4596 146.439 39.9414C145.255 40.4232 143.835 40.6641 142.182 40.6641ZM143.451 35.9766C145.066 35.9766 146.446 35.6576 147.592 35.0195C148.751 34.3815 149.63 33.5482 150.229 32.5195C150.84 31.4779 151.146 30.3646 151.146 29.1797V25.3125C150.938 25.5208 150.535 25.7161 149.936 25.8984C149.35 26.0677 148.679 26.2174 147.924 26.3477C147.169 26.4648 146.433 26.5755 145.717 26.6797C145.001 26.7708 144.402 26.849 143.92 26.9141C142.787 27.0573 141.752 27.2982 140.814 27.6367C139.89 27.9753 139.148 28.4635 138.588 29.1016C138.041 29.7266 137.768 30.5599 137.768 31.6016C137.768 33.0469 138.301 34.1406 139.369 34.8828C140.437 35.612 141.798 35.9766 143.451 35.9766Z" fill="black"/>
<path d="M164.315 40V0H180.331C183.274 0 185.728 0.436198 187.694 1.30859C189.66 2.18099 191.138 3.39193 192.128 4.94141C193.118 6.47786 193.612 8.2487 193.612 10.2539C193.612 11.8164 193.3 13.1901 192.675 14.375C192.05 15.5469 191.19 16.5104 190.097 17.2656C189.016 18.0078 187.779 18.5352 186.386 18.8477V19.2383C187.909 19.3034 189.335 19.7331 190.663 20.5273C192.004 21.3216 193.091 22.4349 193.925 23.8672C194.758 25.2865 195.175 26.9792 195.175 28.9453C195.175 31.0677 194.647 32.9622 193.593 34.6289C192.551 36.2826 191.008 37.5911 188.964 38.5547C186.92 39.5182 184.4 40 181.405 40H164.315ZM172.772 33.0859H179.667C182.024 33.0859 183.743 32.6367 184.823 31.7383C185.904 30.8268 186.444 29.6159 186.444 28.1055C186.444 26.9987 186.177 26.0221 185.644 25.1758C185.11 24.3294 184.348 23.6654 183.358 23.1836C182.382 22.7018 181.216 22.4609 179.862 22.4609H172.772V33.0859ZM172.772 16.7383H179.042C180.201 16.7383 181.229 16.5365 182.128 16.1328C183.039 15.7161 183.756 15.1302 184.276 14.375C184.81 13.6198 185.077 12.7148 185.077 11.6602C185.077 10.2148 184.563 9.04948 183.534 8.16406C182.519 7.27864 181.073 6.83594 179.198 6.83594H172.772V16.7383Z" fill="#F51250"/>
<path d="M214.076 40.5859C211.042 40.5859 208.419 39.9414 206.205 38.6523C204.005 37.3503 202.305 35.5404 201.107 33.2227C199.91 30.8919 199.311 28.1901 199.311 25.1172C199.311 22.0182 199.91 19.3099 201.107 16.9922C202.305 14.6615 204.005 12.8516 206.205 11.5625C208.419 10.2604 211.042 9.60938 214.076 9.60938C217.11 9.60938 219.727 10.2604 221.928 11.5625C224.141 12.8516 225.847 14.6615 227.045 16.9922C228.243 19.3099 228.842 22.0182 228.842 25.1172C228.842 28.1901 228.243 30.8919 227.045 33.2227C225.847 35.5404 224.141 37.3503 221.928 38.6523C219.727 39.9414 217.11 40.5859 214.076 40.5859ZM214.115 34.1406C215.495 34.1406 216.648 33.75 217.572 32.9688C218.497 32.1745 219.193 31.0938 219.662 29.7266C220.144 28.3594 220.385 26.8034 220.385 25.0586C220.385 23.3138 220.144 21.7578 219.662 20.3906C219.193 19.0234 218.497 17.9427 217.572 17.1484C216.648 16.3542 215.495 15.957 214.115 15.957C212.722 15.957 211.55 16.3542 210.6 17.1484C209.662 17.9427 208.952 19.0234 208.471 20.3906C208.002 21.7578 207.768 23.3138 207.768 25.0586C207.768 26.8034 208.002 28.3594 208.471 29.7266C208.952 31.0938 209.662 32.1745 210.6 32.9688C211.55 33.75 212.722 34.1406 214.115 34.1406Z" fill="black"/>
<path d="M247.807 40.5859C244.773 40.5859 242.149 39.9414 239.936 38.6523C237.735 37.3503 236.036 35.5404 234.838 33.2227C233.64 30.8919 233.041 28.1901 233.041 25.1172C233.041 22.0182 233.64 19.3099 234.838 16.9922C236.036 14.6615 237.735 12.8516 239.936 11.5625C242.149 10.2604 244.773 9.60938 247.807 9.60938C250.84 9.60938 253.458 10.2604 255.658 11.5625C257.872 12.8516 259.577 14.6615 260.775 16.9922C261.973 19.3099 262.572 22.0182 262.572 25.1172C262.572 28.1901 261.973 30.8919 260.775 33.2227C259.577 35.5404 257.872 37.3503 255.658 38.6523C253.458 39.9414 250.84 40.5859 247.807 40.5859ZM247.846 34.1406C249.226 34.1406 250.378 33.75 251.303 32.9688C252.227 32.1745 252.924 31.0938 253.393 29.7266C253.874 28.3594 254.115 26.8034 254.115 25.0586C254.115 23.3138 253.874 21.7578 253.393 20.3906C252.924 19.0234 252.227 17.9427 251.303 17.1484C250.378 16.3542 249.226 15.957 247.846 15.957C246.452 15.957 245.281 16.3542 244.33 17.1484C243.393 17.9427 242.683 19.0234 242.201 20.3906C241.732 21.7578 241.498 23.3138 241.498 25.0586C241.498 26.8034 241.732 28.3594 242.201 29.7266C242.683 31.0938 243.393 32.1745 244.33 32.9688C245.281 33.75 246.452 34.1406 247.846 34.1406Z" fill="black"/>
<path d="M275.521 31.3672L275.541 21.3867H276.752L286.361 10H295.912L283.002 25.0781H281.029L275.521 31.3672ZM267.982 40V0H276.303V40H267.982ZM286.732 40L277.904 26.9336L283.451 21.0547L296.479 40H286.732Z" fill="black"/>
</svg>
