<svg width="405" height="75" viewBox="0 0 405 75" fill="none" xmlns="http://www.w3.org/2000/svg">
<path d="M90.3945 57V17H104.652C107.764 17 110.342 17.5664 112.387 18.6992C114.431 19.832 115.961 21.3815 116.977 23.3477C117.992 25.3008 118.5 27.5013 118.5 29.9492C118.5 32.4102 117.986 34.6237 116.957 36.5898C115.941 38.543 114.405 40.0924 112.348 41.2383C110.303 42.3711 107.732 42.9375 104.633 42.9375H94.8281V37.8203H104.086C106.052 37.8203 107.647 37.4818 108.871 36.8047C110.095 36.1146 110.993 35.1771 111.566 33.9922C112.139 32.8073 112.426 31.4596 112.426 29.9492C112.426 28.4388 112.139 27.0977 111.566 25.9258C110.993 24.7539 110.089 23.8359 108.852 23.1719C107.628 22.5078 106.013 22.1758 104.008 22.1758H96.4297V57H90.3945ZM133.568 57.6641C131.667 57.6641 129.949 57.3125 128.412 56.6094C126.876 55.8932 125.658 54.8581 124.76 53.5039C123.874 52.1497 123.432 50.4896 123.432 48.5234C123.432 46.8307 123.757 45.4375 124.408 44.3437C125.059 43.25 125.938 42.3841 127.045 41.7461C128.152 41.1081 129.389 40.6263 130.756 40.3008C132.123 39.9753 133.516 39.7279 134.936 39.5586C136.732 39.3503 138.191 39.181 139.311 39.0508C140.43 38.9076 141.244 38.6797 141.752 38.3672C142.26 38.0547 142.514 37.5469 142.514 36.8437V36.707C142.514 35.0013 142.032 33.6797 141.068 32.7422C140.118 31.8047 138.699 31.3359 136.811 31.3359C134.844 31.3359 133.295 31.7721 132.162 32.6445C131.042 33.5039 130.268 34.4609 129.838 35.5156L124.35 34.2656C125.001 32.4427 125.951 30.9714 127.201 29.8516C128.464 28.7187 129.916 27.8984 131.557 27.3906C133.197 26.8698 134.923 26.6094 136.732 26.6094C137.93 26.6094 139.2 26.7526 140.541 27.0391C141.895 27.3125 143.158 27.8203 144.33 28.5625C145.515 29.3047 146.485 30.3659 147.24 31.7461C147.995 33.1133 148.373 34.8906 148.373 37.0781V57H142.67V52.8984H142.436C142.058 53.6536 141.492 54.3958 140.736 55.125C139.981 55.8542 139.011 56.4596 137.826 56.9414C136.641 57.4232 135.222 57.6641 133.568 57.6641ZM134.838 52.9766C136.452 52.9766 137.833 52.6576 138.979 52.0195C140.137 51.3815 141.016 50.5482 141.615 49.5195C142.227 48.4779 142.533 47.3646 142.533 46.1797V42.3125C142.325 42.5208 141.921 42.7161 141.322 42.8984C140.736 43.0677 140.066 43.2174 139.311 43.3477C138.555 43.4648 137.82 43.5755 137.104 43.6797C136.387 43.7708 135.788 43.849 135.307 43.9141C134.174 44.0573 133.139 44.2982 132.201 44.6367C131.277 44.9753 130.535 45.4635 129.975 46.1016C129.428 46.7266 129.154 47.5599 129.154 48.6016C129.154 50.0469 129.688 51.1406 130.756 51.8828C131.824 52.612 133.184 52.9766 134.838 52.9766ZM161.991 39.1875V57H156.151V27H161.757V31.8828H162.128C162.818 30.2943 163.899 29.0182 165.37 28.0547C166.854 27.0911 168.723 26.6094 170.976 26.6094C173.02 26.6094 174.81 27.0391 176.347 27.8984C177.883 28.7448 179.075 30.0078 179.921 31.6875C180.767 33.3672 181.19 35.444 181.19 37.918V57H175.351V38.6211C175.351 36.4466 174.784 34.7474 173.651 33.5234C172.519 32.2865 170.963 31.668 168.983 31.668C167.629 31.668 166.425 31.9609 165.37 32.5469C164.328 33.1328 163.502 33.9922 162.89 35.125C162.291 36.2448 161.991 37.599 161.991 39.1875ZM200.253 57.5859C197.831 57.5859 195.67 56.9674 193.769 55.7305C191.881 54.4805 190.396 52.7031 189.315 50.3984C188.248 48.0807 187.714 45.3008 187.714 42.0586C187.714 38.8164 188.254 36.043 189.335 33.7383C190.429 31.4336 191.926 29.6693 193.827 28.4453C195.728 27.2214 197.883 26.6094 200.292 26.6094C202.154 26.6094 203.651 26.9219 204.784 27.5469C205.93 28.1589 206.815 28.875 207.44 29.6953C208.078 30.5156 208.573 31.2383 208.925 31.8633H209.276V17H215.116V57H209.413V52.332H208.925C208.573 52.9701 208.065 53.6992 207.401 54.5195C206.75 55.3398 205.852 56.056 204.706 56.668C203.56 57.2799 202.076 57.5859 200.253 57.5859ZM201.542 52.6055C203.222 52.6055 204.641 52.1628 205.8 51.2773C206.972 50.3789 207.857 49.1354 208.456 47.5469C209.068 45.9583 209.374 44.1094 209.374 42C209.374 39.9167 209.075 38.0937 208.476 36.5312C207.877 34.9687 206.998 33.7513 205.839 32.8789C204.68 32.0065 203.248 31.5703 201.542 31.5703C199.784 31.5703 198.319 32.026 197.147 32.9375C195.976 33.849 195.09 35.0924 194.491 36.668C193.905 38.2435 193.612 40.0208 193.612 42C193.612 44.0052 193.912 45.8086 194.511 47.4102C195.11 49.0117 195.995 50.2812 197.167 51.2187C198.352 52.1432 199.81 52.6055 201.542 52.6055ZM232.182 57.6641C230.281 57.6641 228.562 57.3125 227.025 56.6094C225.489 55.8932 224.271 54.8581 223.373 53.5039C222.488 52.1497 222.045 50.4896 222.045 48.5234C222.045 46.8307 222.37 45.4375 223.021 44.3437C223.673 43.25 224.551 42.3841 225.658 41.7461C226.765 41.1081 228.002 40.6263 229.369 40.3008C230.736 39.9753 232.13 39.7279 233.549 39.5586C235.346 39.3503 236.804 39.181 237.924 39.0508C239.044 38.9076 239.857 38.6797 240.365 38.3672C240.873 38.0547 241.127 37.5469 241.127 36.8437V36.707C241.127 35.0013 240.645 33.6797 239.682 32.7422C238.731 31.8047 237.312 31.3359 235.424 31.3359C233.458 31.3359 231.908 31.7721 230.775 32.6445C229.656 33.5039 228.881 34.4609 228.451 35.5156L222.963 34.2656C223.614 32.4427 224.564 30.9714 225.814 29.8516C227.077 28.7187 228.529 27.8984 230.17 27.3906C231.811 26.8698 233.536 26.6094 235.346 26.6094C236.544 26.6094 237.813 26.7526 239.154 27.0391C240.508 27.3125 241.771 27.8203 242.943 28.5625C244.128 29.3047 245.098 30.3659 245.854 31.7461C246.609 33.1133 246.986 34.8906 246.986 37.0781V57H241.283V52.8984H241.049C240.671 53.6536 240.105 54.3958 239.35 55.125C238.594 55.8542 237.624 56.4596 236.439 56.9414C235.255 57.4232 233.835 57.6641 232.182 57.6641ZM233.451 52.9766C235.066 52.9766 236.446 52.6576 237.592 52.0195C238.751 51.3815 239.63 50.5482 240.229 49.5195C240.84 48.4779 241.146 47.3646 241.146 46.1797V42.3125C240.938 42.5208 240.535 42.7161 239.936 42.8984C239.35 43.0677 238.679 43.2174 237.924 43.3477C237.169 43.4648 236.433 43.5755 235.717 43.6797C235.001 43.7708 234.402 43.849 233.92 43.9141C232.787 44.0573 231.752 44.2982 230.814 44.6367C229.89 44.9753 229.148 45.4635 228.588 46.1016C228.041 46.7266 227.768 47.5599 227.768 48.6016C227.768 50.0469 228.301 51.1406 229.369 51.8828C230.437 52.612 231.798 52.9766 233.451 52.9766Z" fill="black"/>
<path d="M254.315 57V17H270.331C273.274 17 275.728 17.4362 277.694 18.3086C279.66 19.181 281.138 20.3919 282.128 21.9414C283.118 23.4779 283.612 25.2487 283.612 27.2539C283.612 28.8164 283.3 30.1901 282.675 31.375C282.05 32.5469 281.19 33.5104 280.097 34.2656C279.016 35.0078 277.779 35.5352 276.386 35.8477V36.2383C277.909 36.3034 279.335 36.7331 280.663 37.5273C282.004 38.3216 283.091 39.4349 283.925 40.8672C284.758 42.2865 285.175 43.9792 285.175 45.9453C285.175 48.0677 284.647 49.9622 283.593 51.6289C282.551 53.2826 281.008 54.5911 278.964 55.5547C276.92 56.5182 274.4 57 271.405 57H254.315ZM262.772 50.0859H269.667C272.024 50.0859 273.743 49.6367 274.823 48.7383C275.904 47.8268 276.444 46.6159 276.444 45.1055C276.444 43.9987 276.177 43.0221 275.644 42.1758C275.11 41.3294 274.348 40.6654 273.358 40.1836C272.382 39.7018 271.216 39.4609 269.862 39.4609H262.772V50.0859ZM262.772 33.7383H269.042C270.201 33.7383 271.229 33.5365 272.128 33.1328C273.039 32.7161 273.756 32.1302 274.276 31.375C274.81 30.6198 275.077 29.7148 275.077 28.6602C275.077 27.2148 274.563 26.0495 273.534 25.1641C272.519 24.2786 271.073 23.8359 269.198 23.8359H262.772V33.7383ZM304.076 57.5859C301.042 57.5859 298.419 56.9414 296.205 55.6523C294.005 54.3503 292.305 52.5404 291.107 50.2227C289.91 47.8919 289.311 45.1901 289.311 42.1172C289.311 39.0182 289.91 36.3099 291.107 33.9922C292.305 31.6615 294.005 29.8516 296.205 28.5625C298.419 27.2604 301.042 26.6094 304.076 26.6094C307.11 26.6094 309.727 27.2604 311.928 28.5625C314.141 29.8516 315.847 31.6615 317.045 33.9922C318.243 36.3099 318.842 39.0182 318.842 42.1172C318.842 45.1901 318.243 47.8919 317.045 50.2227C315.847 52.5404 314.141 54.3503 311.928 55.6523C309.727 56.9414 307.11 57.5859 304.076 57.5859ZM304.115 51.1406C305.495 51.1406 306.648 50.75 307.572 49.9688C308.497 49.1745 309.193 48.0937 309.662 46.7266C310.144 45.3594 310.385 43.8034 310.385 42.0586C310.385 40.3138 310.144 38.7578 309.662 37.3906C309.193 36.0234 308.497 34.9427 307.572 34.1484C306.648 33.3542 305.495 32.957 304.115 32.957C302.722 32.957 301.55 33.3542 300.6 34.1484C299.662 34.9427 298.952 36.0234 298.471 37.3906C298.002 38.7578 297.768 40.3138 297.768 42.0586C297.768 43.8034 298.002 45.3594 298.471 46.7266C298.952 48.0937 299.662 49.1745 300.6 49.9688C301.55 50.75 302.722 51.1406 304.115 51.1406ZM337.807 57.5859C334.773 57.5859 332.149 56.9414 329.936 55.6523C327.735 54.3503 326.036 52.5404 324.838 50.2227C323.64 47.8919 323.041 45.1901 323.041 42.1172C323.041 39.0182 323.64 36.3099 324.838 33.9922C326.036 31.6615 327.735 29.8516 329.936 28.5625C332.149 27.2604 334.773 26.6094 337.807 26.6094C340.84 26.6094 343.458 27.2604 345.658 28.5625C347.872 29.8516 349.577 31.6615 350.775 33.9922C351.973 36.3099 352.572 39.0182 352.572 42.1172C352.572 45.1901 351.973 47.8919 350.775 50.2227C349.577 52.5404 347.872 54.3503 345.658 55.6523C343.458 56.9414 340.84 57.5859 337.807 57.5859ZM337.846 51.1406C339.226 51.1406 340.378 50.75 341.303 49.9688C342.227 49.1745 342.924 48.0937 343.393 46.7266C343.874 45.3594 344.115 43.8034 344.115 42.0586C344.115 40.3138 343.874 38.7578 343.393 37.3906C342.924 36.0234 342.227 34.9427 341.303 34.1484C340.378 33.3542 339.226 32.957 337.846 32.957C336.452 32.957 335.281 33.3542 334.33 34.1484C333.393 34.9427 332.683 36.0234 332.201 37.3906C331.732 38.7578 331.498 40.3138 331.498 42.0586C331.498 43.8034 331.732 45.3594 332.201 46.7266C332.683 48.0937 333.393 49.1745 334.33 49.9688C335.281 50.75 336.452 51.1406 337.846 51.1406ZM365.521 48.3672L365.541 38.3867H366.752L376.361 27H385.912L373.002 42.0781H371.029L365.521 48.3672ZM357.982 57V17H366.303V57H357.982ZM376.732 57L367.904 43.9336L373.451 38.0547L386.479 57H376.732Z" fill="#F51250"/>
<rect x="2" y="2" width="72" height="71" rx="10" fill="white" stroke="black" stroke-width="4"/>
<path d="M24.304 61V17.3636H40.6676C44.0199 17.3636 46.8324 17.9886 49.1051 19.2386C51.392 20.4886 53.1179 22.2074 54.2827 24.3949C55.4616 26.5682 56.0511 29.0398 56.0511 31.8097C56.0511 34.608 55.4616 37.0937 54.2827 39.267C53.1037 41.4403 51.3636 43.152 49.0625 44.402C46.7614 45.6378 43.9276 46.2557 40.5611 46.2557H29.7159V39.7571H39.4957C41.456 39.7571 43.0611 39.4162 44.3111 38.7344C45.5611 38.0526 46.4844 37.1151 47.081 35.9219C47.6918 34.7287 47.9972 33.358 47.9972 31.8097C47.9972 30.2614 47.6918 28.8977 47.081 27.7188C46.4844 26.5398 45.554 25.6236 44.2898 24.9702C43.0398 24.3026 41.4276 23.9688 39.4531 23.9688H32.2088V61H24.304Z" fill="#F51250"/>
</svg>
